<svg xmlns="http://www.w3.org/2000/svg" width="57" height="57" viewBox="0 0 57 57">
   <path style="fill:#86a770" d="M 38.103997,56.203926 C 34.821592,55.849266 26.873008,55.720504 20.440477,55.91779 10.830506,56.212527 8.6449015,56.020107 8.1838222,54.838717 7.875194,54.04794 6.5428826,53.134478 5.2231303,52.8088 3.6509596,52.420832 2.6201919,51.29446 2.2337165,49.542116 1.9092912,48.071119 1.1853817,45.932384 0.62502863,44.789374 -0.09743498,43.315691 -0.04505355,42.070479 0.80510501,40.508601 1.7496897,38.773246 1.739214,38.145124 0.75572033,37.547491 -0.23414629,36.945985 -0.24745595,35.706363 0.69142826,31.55951 1.3426242,28.683316 1.820208,25.669932 1.7527254,24.863101 1.685243,24.05627 1.6663312,21.273783 1.7106991,18.679796 1.7550672,16.08581 1.3097228,13.078595 0.7210448,11.997099 -0.10469216,10.480087 0.00978493,9.6406396 1.2220025,8.3236317 2.0862072,7.3847214 2.7932837,5.9069909 2.7932837,5.0397858 c 0,-2.3558644 0.9527232,-2.6215198 11.0911193,-3.092625 5.119562,-0.2378928 10.044357,-0.7102469 10.943992,-1.04967554 0.899633,-0.33942879 1.931188,-0.14705121 2.292344,0.42750564 0.896744,1.4266128 5.202013,1.2416686 9.971759,-0.42836333 3.406646,-1.19276962 4.261078,-1.1943825 6.097182,-0.0115098 1.255754,0.80899403 3.734069,1.21927173 6.016512,0.99601543 4.39557,-0.4299509 5.517395,0.063835 7.174329,3.1578751 1.049451,1.9596676 0.724918,6.0924667 -0.666569,8.4885277 -0.918899,1.582288 -0.7908,24.470224 0.149346,26.684631 1.481707,3.489988 -2.190295,13.81614 -5.525224,15.537656 -1.477267,0.762578 -3.49147,1.321802 -4.476005,1.242722 -0.984536,-0.07908 -4.475668,-0.433959 -7.758072,-0.788619 z" />
   
   <path style="fill:#65934d" d="M 8.5964737,54.381228 C 7.8665225,53.361428 6.2298171,52.204107 4.9593508,51.809406 3.5260481,51.364114 2.8536062,50.568574 3.1874644,49.713152 3.4833932,48.954915 3.2655474,48.33454 2.7033639,48.33454 c -0.562184,0 -0.756773,-0.422188 -0.4324199,-0.938196 C 2.5952969,46.880337 2.3109554,45.592676 1.6390737,44.534876 0.72063234,43.088897 0.69207758,42.019021 1.5240111,40.223766 2.40992,38.312036 2.3167421,37.527385 1.0566933,36.288481 -0.07900984,35.171836 -0.22612236,34.387038 0.52826343,33.469479 2.1518884,31.494666 3.0610094,24.248393 1.9428676,22.194185 1.3928053,21.183632 1.3014385,19.786192 1.7398301,19.088762 2.1782217,18.391333 2.1443284,16.102795 1.6645116,14.003124 1.0766973,11.430854 1.1689437,9.4690311 1.9472978,7.9890483 2.5826471,6.7809783 3.4253268,5.1324237 3.8199195,4.325593 4.2366041,3.4735908 5.7354419,2.9104855 7.3953273,2.9823315 8.9672087,3.0503684 13.680197,2.6827166 17.868635,2.1653274 23.260187,1.49932 26.089599,1.5432991 27.557918,2.3159331 c 1.592279,0.8378618 3.389307,0.7153427 7.737654,-0.5275436 4.323133,-1.23567884 6.087764,-1.35847789 7.455244,-0.5188033 0.985341,0.6050294 4.045202,1.1000536 6.79969,1.1000536 4.344464,0 5.154762,0.3163533 6.114386,2.3871558 0.76813,1.6575725 0.808646,3.6751324 0.132565,6.6013414 -0.535512,2.317803 -0.846999,6.194589 -0.692193,8.615081 0.154808,2.420492 -0.151441,6.036424 -0.68055,8.035404 -0.698871,2.640335 -0.620711,4.171859 0.285737,5.598956 0.946398,1.489993 0.969154,2.238372 0.09423,3.098621 -0.874932,0.86025 -0.797562,1.66834 0.320347,3.345853 1.320998,1.982268 1.271759,2.800327 -0.474699,7.886708 -1.071717,3.121266 -2.771267,6.28493 -3.776777,7.030361 -1.668107,1.236647 -6.141048,1.26543 -19.732224,0.126979 -0.547068,-0.04583 -5.544843,0.191774 -11.106166,0.527996 -9.20061,0.556245 -10.2310555,0.444282 -11.4386813,-1.242868 z m 9.8421083,-3.70362 c -0.33052,-0.324973 -1.188421,-0.359717 -1.906447,-0.07721 -0.79348,0.312195 -0.557786,0.543934 0.600945,0.590861 1.048545,0.04246 1.636021,-0.188679 1.305502,-0.513653 z M 7.3503194,48.763487 c -1.7676228,-1.73796 -2.2361438,-1.766414 -2.2361438,-0.135799 0,0.699119 0.8250931,1.332235 1.8335401,1.406924 1.5950371,0.118135 1.6474069,-0.04721 0.4026037,-1.271125 z m 4.3949756,-3.805849 c 0,-1.247733 -2.4206148,-5.424888 -3.1436626,-5.424888 -1.0597033,0 -1.0476094,0.300846 0.1350404,3.359252 0.8049211,2.081576 3.0086222,3.594576 3.0086222,2.065636 z M 5.7772876,34.038444 c 0,-0.80683 0.4476006,-1.194975 0.994668,-0.862542 0.973015,0.591265 1.486234,-2.036295 1.1324997,-5.798131 C 7.806904,26.340348 8.2561765,25.170041 8.9028389,24.777088 9.7671744,24.251863 9.6595025,23.650575 8.4963198,22.506912 7.626072,21.651267 6.7701794,20.951549 6.5943364,20.951981 c -0.1758431,4.32e-4 -0.4543758,2.051583 -0.6189616,4.558111 -0.1645857,2.50653 -0.7240865,5.337825 -1.243335,6.291769 -1.2435837,2.284665 -1.2108285,5.074482 0.05058,4.307971 0.5470674,-0.332433 0.9946679,-1.264557 0.9946678,-2.071388 z m 6.6474794,0.421052 c -0.317524,-0.780164 -0.553218,-0.548425 -0.600946,0.590862 -0.04319,1.030949 0.191899,1.608567 0.52242,1.283594 0.330519,-0.324974 0.365856,-1.168479 0.07853,-1.874456 z" />
   
   <path style="fill:#507639" d="m 10.407443,55.42487 c -0.253324,-0.403415 0.612499,-0.796768 1.924052,-0.874117 1.311552,-0.07735 2.137385,0.252718 1.835186,0.733483 -0.667704,1.062237 -3.122844,1.154085 -3.759238,0.140634 z m 5.988139,-0.523927 c 0.26641,-0.42263 2.13682,-0.672555 4.156468,-0.555387 2.019648,0.117169 5.899854,-0.511413 8.622681,-1.396848 2.722827,-0.885434 6.210991,-1.86142 7.751477,-2.168855 2.023199,-0.403772 3.251081,-1.567592 4.422303,-4.19158 1.686288,-3.777935 2.394736,-11.713712 1.197356,-13.412371 -0.967314,-1.372279 -0.804803,-7.334824 0.199914,-7.334824 0.455889,0 0.828889,-1.114036 0.828889,-2.475636 0,-1.361598 0.671401,-2.728951 1.492002,-3.038562 0.820601,-0.30961 1.492002,-1.600582 1.492002,-2.868827 0,-1.304985 0.863506,-2.760279 1.989336,-3.352695 1.094135,-0.575736 1.989336,-1.84328 1.989336,-2.816764 0,-1.8368056 -2.915488,-5.0070478 -4.604692,-5.0070478 -1.574614,0 -6.320484,-2.3834153 -6.328895,-3.178424 -0.0043,-0.4034153 -1.014862,-0.7613781 -2.245763,-0.7954728 -2.179051,-0.060358 -2.172934,-0.087513 0.232221,-1.0309248 1.663478,-0.65249197 3.221786,-0.63224668 4.771475,0.06199 1.265688,0.5670087 4.22502,1.0309249 6.576293,1.0309249 6.85264,0 9.283917,4.0754984 6.058688,10.1560475 -0.987717,1.862147 -1.169462,3.208577 -0.534627,3.960672 0.52899,0.626697 0.735462,3.537996 0.458828,6.469555 -0.896995,9.505658 -1.012075,16.576836 -0.269782,16.576836 1.592758,0 1.894164,4.045561 0.49095,6.589655 -0.819403,1.485618 -1.761811,3.951382 -2.09424,5.479477 -0.412532,1.896309 -1.061073,2.606059 -2.042838,2.235643 -0.815029,-0.307507 -1.335824,-0.02817 -1.201687,0.644564 0.17141,0.859658 -1.821782,1.133897 -7.223275,0.993835 -11.457488,-0.297094 -16.982163,-0.308795 -22.037745,-0.04667 -2.54708,0.132061 -4.413084,-0.105677 -4.146675,-0.528309 z M 49.47963,39.168508 c -0.07121,-5.663791 -1.255291,-3.987034 -2.190208,3.101517 -0.467505,3.544633 -0.334245,4.024512 0.849377,3.058676 0.892955,-0.72865 1.380933,-2.970575 1.340831,-6.160193 z M 46.222756,26.57456 c -0.275934,-0.672359 -0.501697,-0.122247 -0.501697,1.222471 0,1.344718 0.225763,1.89483 0.501697,1.222471 0.275933,-0.672359 0.275933,-1.772583 0,-2.444942 z M 34.795673,46.432697 c 2.385392,-2.969109 3.805658,-3.719262 3.805658,-2.010064 0,1.306104 -3.700391,4.889883 -5.048993,4.889883 -0.588677,0 -0.02917,-1.295919 1.243335,-2.879819 z m 2.81099,-15.155031 c 0,-0.838575 0.4476,-1.524682 0.994668,-1.524682 0.547067,0 0.994668,0.414116 0.994668,0.920259 0,0.506143 -0.447601,1.19225 -0.994668,1.524683 -0.547068,0.332432 -0.994668,-0.08168 -0.994668,-0.92026 z M 40.584538,16.794794 C 40.581138,16.122435 39.940244,14.36953 39.160263,12.89945 38.380281,11.42937 38.124109,9.9944539 38.59099,9.7107478 c 0.916132,-0.5566995 3.989012,4.8278002 3.989012,6.9898062 0,0.724191 -0.4476,1.316711 -0.994668,1.316711 -0.547067,0 -0.997425,-0.550112 -1.000796,-1.222471 z M 14.173409,5.8708498 c -1.759445,-1.2654431 -1.533584,-1.3634314 2.545226,-1.1042275 6.254063,0.3974389 6.735363,0.5603366 4.476006,1.5149239 -2.956885,1.2492956 -4.868702,1.137467 -7.021232,-0.4106964 z M 26.118247,3.4425434 C 25.598533,2.956866 24.278112,2.3477828 23.183977,2.089025 21.561959,1.7054253 21.653788,1.6033522 23.681311,1.5362127 c 1.367668,-0.045289 3.35552,0.5637942 4.41745,1.3535183 1.446564,1.0757666 1.558817,1.435862 0.4476,1.435862 -0.815749,0 -1.9084,-0.3973724 -2.428114,-0.8830496 z" />
</svg>