<svg xmlns="http://www.w3.org/2000/svg" width="57" height="57" viewBox="0 0 57 57">
   <path style="fill:#85a571" d="M 19,58.5 C 17.708255,57.125 16.039813,56 15.292353,56 13.770911,56 7,49.582379 7,48.140322 7,47.630833 6.325,46.954956 5.5,46.638374 4.675,46.321791 4,44.907814 4,43.496202 4,42.084589 3.2753859,39.823733 2.3897465,38.472076 1.3463562,36.879661 0.93973494,34.691837 1.2346824,32.257259 1.4850366,30.190767 1.2870758,27.596485 0.79476954,26.492189 -0.28267891,24.075356 2.2784956,17.214098 4.5890706,16.327447 5.4282995,16.005404 5.8749672,15.116553 5.5816657,14.352222 5.2772812,13.559008 6.943762,11.039938 9.4642716,8.483232 13.424133,4.4665043 14.149279,4.1062575 16.486245,4.9947703 18.478437,5.7522004 19.680019,5.6005403 21.587132,4.3509517 23.730021,2.9468774 24.464055,2.9037138 26.790964,4.0449493 28.280934,4.7757071 30.4,5.438942 31.5,5.5188046 c 9.042017,0.6564718 12.490723,1.7575676 14.707491,4.6957774 1.26088,1.67123 3.014241,3.815865 3.896357,4.765857 C 52.465737,17.524065 55,22.985167 55,25.531193 55,26.754348 55.675,28.315311 56.5,29 57.325,29.684689 58,31.289067 58,32.565285 58,34.946874 54.347386,42 53.114028,42 c -0.37863,0 -0.755578,0.891553 -0.837661,1.981229 -0.290513,3.856664 -2.747596,7.512189 -5.285734,7.863852 -1.369848,0.189795 -3.295663,1.202295 -4.279588,2.25 C 41.72712,55.142786 39.90462,56 38.661045,56 37.41747,56 35.9725,56.423081 35.45,56.94018 c -0.5225,0.5171 -2.261035,1.175635 -3.863411,1.463412 -1.602377,0.287777 -3.379877,0.989696 -3.95,1.559819 C 25.777494,61.822506 21.429146,61.085707 19,58.5 Z" />
   
   <path style="fill:#64924c" d="m 19.85496,58.517277 c -1.295228,-1.365498 -2.923254,-2.490498 -3.617835,-2.5 C 14.51351,55.993697 7.0036861,48.816604 7.0016442,47.190983 7.0007399,46.471024 6.55,46.160081 6,46.5 5.0163462,47.107932 4.7826436,46.471413 4.5313706,42.5 4.4617731,41.4 3.5446162,38.789891 2.4932442,36.699759 0.87774102,33.488131 0.78166183,32.579262 1.8729316,30.831861 2.7990953,29.348837 2.8582386,28.458239 2.0821022,27.682102 0.31050797,25.910508 0.84045682,22.514194 3.5,18.595138 4.875,16.568962 6,14.246519 6,13.434152 6,12.621786 7.125,11.444538 8.5,10.818046 9.875,10.191554 11,9.0665543 11,8.3180462 11,6.043437 15.38703,4.6015811 18.020146,6.0107818 c 1.894817,1.0140754 2.423426,0.9479833 3.176183,-0.3971192 1.047662,-1.872068 4.877622,-2.1397115 6.558982,-0.4583516 0.635421,0.6354211 3.312921,1.29405 5.95,1.4636199 8.178659,0.5259054 9.268467,0.9155559 12.072177,4.3162911 1.497382,1.816235 3.444244,4.083047 4.32636,5.03736 2.503282,2.708161 4.850486,7.982846 4.249382,9.549297 -0.299554,0.780626 0.398425,2.618236 1.551063,4.083579 2.46953,3.139499 2.676395,5.234481 0.595707,6.032916 -0.825,0.316582 -1.5,1.441582 -1.5,2.5 0,1.058417 -0.675,2.183417 -1.5,2.5 -0.825,0.316582 -1.53289,1.539959 -1.573088,2.718615 -0.12003,3.51938 -3.368055,8.113031 -6.002456,8.489216 -1.333451,0.190413 -2.784317,0.977913 -3.224146,1.75 C 42.26048,54.368292 40.62808,55 39.072755,55 37.517429,55 35.684689,55.675 35,56.5 34.315311,57.325 32.771219,58 31.568685,58 c -1.202534,0 -3.059934,0.660688 -4.127555,1.468197 -2.812569,2.12732 -4.916493,1.863594 -7.58617,-0.95092 z M 6.1125,31.7125 C 5.2958333,30.895833 5,31.00774 5,32.133333 5,34.12119 6.3447025,35.465892 6.8416667,33.975 7.0525,33.3425 6.724375,32.324375 6.1125,31.7125 Z M 10.662281,27.75 c -0.277413,-0.6875 -0.504386,-0.125 -0.504386,1.25 0,1.375 0.226973,1.9375 0.504386,1.25 0.277412,-0.6875 0.277412,-1.8125 0,-2.5 z M 14,25.5 C 14,24.675 13.823145,24 13.606989,24 13.390833,24 12.954956,24.675 12.638374,25.5 12.321791,26.325 12.498646,27 13.031385,27 13.564123,27 14,26.325 14,25.5 Z M 4.125,25 C 4.3639944,23.088045 4.5779459,22.487267 5.8085746,20.272505 6.8627386,18.375327 6.8204112,18.131684 5.5231392,18.629494 4.1773399,19.145926 3.5239509,20.985022 3.8815789,23.25 3.9467105,23.6625 3.55,24 3,24 c -0.55,0 -1,0.45 -1,1 0,0.55 0.45,1 1,1 0.55,0 1.05625,-0.45 1.125,-1 z M 14.806704,16.75 C 15.525391,15.7875 16.654645,15 17.316157,15 c 1.564209,0 3.905025,-3.745268 2.776671,-4.442629 -0.476418,-0.294443 -1.385661,0.09054 -2.020539,0.855526 -0.634879,0.764982 -2.148367,1.647251 -3.363307,1.960597 C 12.729652,13.883985 10,17.91171 10,20.321809 10,21.421114 12.962722,19.219548 14.806704,16.75 Z" />
   
   <path style="fill:#587646" d="M 20.182369,58.5 C 18.548275,57.125 16.678468,56 16.027243,56 14.402424,56 6.8647588,48.027842 7.5070181,46.988645 7.7916254,46.52814 7.2314766,45.998644 6.262243,45.811987 5.0253406,45.573781 4.5,44.536305 4.5,42.331796 c 0,-1.727447 0.3375,-2.932227 0.75,-2.677288 0.4125,0.25494 0.7512938,1.224468 0.7528752,2.154509 0.00297,1.744821 5.3659978,5.884579 7.0487598,5.440983 0.521601,-0.1375 1.837117,0.638752 2.92337,1.725005 1.606225,1.606225 3.281671,1.962772 8.972865,1.909488 6.730547,-0.06301 7.142658,-0.210315 10.788474,-3.856131 2.084838,-2.084838 4.684548,-3.961385 5.777135,-4.170106 1.330548,-0.254179 2.290917,-1.608137 2.908342,-4.100272 0.759772,-3.066693 0.596922,-4.079792 -0.926371,-5.763012 C 42.078591,31.429361 41.9218,30.6782 42.823629,29.776371 44.436526,28.163474 44.289125,24.077997 42.493839,20.635693 41.672228,19.060324 41,17.170185 41,16.435383 41,15.700582 40.403565,14.73952 39.674589,14.29969 38.945613,13.859861 38.038683,12.657636 37.659189,11.62808 37.123119,10.17374 36.317921,9.8864158 34.049662,10.340068 31.726854,10.804629 30.482038,10.31857 27.959307,7.9619875 24.572127,4.7978871 23.467142,4.3941233 22.658333,6.025 22.37875,6.58875 22.26604,6.47625 22.407866,5.775 22.776744,3.9511111 25.815942,3.6022588 27.70106,5.1674243 c 0.88274,0.7329166 3.448622,1.3976324 5.701961,1.4771461 6.939114,0.2448611 10.173032,1.415579 12.684339,4.5918866 1.326952,1.678332 3.21811,3.90469 4.202574,4.947462 2.35386,2.493275 4.065643,6.77615 3.79809,9.502807 -0.118014,1.2027 0.713902,3.1152 1.848702,4.25 2.457425,2.457425 2.55804,3.42565 0.563274,5.420417 -0.825,0.825 -1.5,2.249272 -1.5,3.165048 0,0.915777 -0.847721,1.886732 -1.883825,2.15768 -1.202017,0.314334 -1.7185,1.124837 -1.427034,2.239405 0.781009,2.986582 -3.010317,8.541082 -6.076801,8.902845 -1.501754,0.177167 -2.977029,0.964667 -3.278389,1.75 C 42.03259,54.357455 40.539267,55 39.015456,55 37.491644,55 35.684689,55.675 35,56.5 c -0.684689,0.825 -2.427289,1.514312 -3.872445,1.531803 -1.445155,0.01749 -3.501063,0.692492 -4.568685,1.5 C 23.990142,61.474692 23.652698,61.420089 20.182369,58.5 Z m 22.640179,-9.109671 c 1.18623,0.73313 4.727051,-3.174063 3.756227,-4.144888 -0.408263,-0.408263 -1.312499,0.0375 -2.009413,0.990588 -0.696914,0.953086 -1.549246,1.450753 -1.894073,1.105927 -0.344826,-0.344827 -1.29312,-0.07409 -2.107318,0.601633 -0.814199,0.675725 -1.918979,0.95751 -2.455068,0.626189 -0.536088,-0.331321 -1.23631,-0.179118 -1.556048,0.338228 -0.788996,1.276622 2.642466,1.960668 4.14934,0.827151 0.663407,-0.499035 1.615766,-0.654208 2.116353,-0.344828 z M 49.1125,24.7125 C 48.295833,23.895833 48,24.00774 48,25.133333 48,27.12119 49.344703,28.465892 49.841667,26.975 50.0525,26.3425 49.724375,25.324375 49.1125,24.7125 Z M 23.669301,44.930699 c 0.588116,-0.588116 1.793438,-1.175582 2.678493,-1.305481 0.885055,-0.129898 2.686084,-1.247868 4.002288,-2.484377 l 2.393097,-2.248198 -0.502406,2.628166 C 31.724741,44.220259 28.742391,46 24.7349,46 23.219392,46 22.910233,45.689767 23.669301,44.930699 Z M 39,33.940983 c 0,-0.582459 0.45,-0.780902 1,-0.440983 0.55,0.339919 1,0.816476 1,1.059017 C 41,34.801558 40.55,35 40,35 39.45,35 39,34.523442 39,33.940983 Z M 31.243983,29.25 c 0.225857,-0.4125 1.038561,-2.216599 1.806008,-4.009108 1.467182,-3.426861 3.692123,-3.882722 3.109755,-0.637148 C 35.770468,26.773217 33.140569,30 31.761679,30 31.251089,30 31.018125,29.6625 31.243983,29.25 Z M 1.5642929,21.706872 c 0.3755314,-0.986221 0.9346919,-1.541221 1.242579,-1.233333 0.3078871,0.307887 6.342e-4,1.114794 -0.6827842,1.793128 -0.9876158,0.980267 -1.1024794,0.865403 -0.5597948,-0.559795 z" />
   
   <path style="fill:#4e7535" d="M 19.964826,58.457618 C 18.249734,56.391058 20.324346,53.924346 22.2,55.8 c 2.126053,2.126053 2.947557,1.274757 0.895449,-0.927922 -1.831424,-1.965804 -2.106487,-2.003897 -3.610384,-0.5 -0.895357,0.895357 -2.383279,1.575721 -3.306494,1.511921 -1.49477,-0.1033 -1.486949,-0.166078 0.07143,-0.573325 2.14582,-0.560761 2.270813,-1.896842 0.25,-2.6723 -0.825,-0.316583 -1.506891,-0.02723 -1.515313,0.643011 C 14.975003,54.052098 14.613081,53.948675 14,53 c -1.323978,-2.04871 -1.245515,-3.269771 0.154508,-2.404508 0.763093,0.471616 0.880858,0.270749 0.347357,-0.592474 -0.632441,-1.023311 -1.091129,-0.917637 -2.119109,0.48821 -1.218683,1.666648 -1.438893,1.571223 -3.097357,-1.342187 C 8.3034295,47.424023 6.9375,46.0098 6.25,46.006323 5.5625,46.002845 5,45.55 5,45 c 0,-1.823478 3.1781392,-1.034799 3.6880819,0.915225 0.3775991,1.443942 1.2034405,1.826307 3.3560911,1.553873 2.141335,-0.271002 3.00969,0.125248 3.472926,1.584775 0.727027,2.290659 0.112742,2.131587 9.193129,2.380603 7.143738,0.195906 7.241875,0.163311 10.641959,-3.534664 1.887451,-2.052817 4.492848,-3.882563 5.789771,-4.066103 1.675441,-0.237108 2.681361,-1.334038 3.474947,-3.789344 0.614297,-1.900599 1.698505,-3.649502 2.409349,-3.88645 0.862039,-0.287346 1.076685,0.131447 0.64455,1.257573 -0.382784,0.997519 -0.243394,1.438392 0.34065,1.077433 C 49.716683,37.439032 49.104108,36.17457 46,34.340929 42.92315,32.523389 42.180634,30.219366 44.0646,28.3354 45.482625,26.917375 42.438073,17.101998 39.878481,14.839707 38.845317,13.926546 38,12.744147 38,12.212152 38,11.680158 37.325,10.684689 36.5,10 35.343487,9.0401794 34.674327,9.025395 33.577794,9.9354369 32.435577,10.883393 31.434327,10.415324 28.491945,7.5578816 26.476941,5.6010467 25.331057,4 25.945536,4 c 0.614478,0 1.389101,0.7084759 1.721384,1.5743908 0.429128,1.1182907 1.36156,1.39919 3.218615,0.9696233 C 32.912161,6.075223 33.162739,6.179259 32,7.0067236 c -1.123921,0.7998399 -0.588515,0.9102994 2.135479,0.44057 2.233854,-0.3852087 3.899043,-0.200453 4.319099,0.4792116 0.37599,0.6083652 1.178997,0.799958 1.784459,0.4257618 0.715069,-0.4419368 0.870085,-0.079019 0.442356,1.0356259 -0.364173,0.9490191 -0.247535,1.4620021 0.260963,1.1477331 0.505696,-0.312537 1.202099,-0.110909 1.547563,0.448062 0.345463,0.558972 1.614057,1.036609 2.819098,1.061416 1.909779,0.03932 1.805945,0.233769 -0.809017,1.51508 -1.65,0.808488 -2.284192,1.279825 -1.409316,1.047417 0.874876,-0.232409 2.212999,-0.03795 2.973607,0.432133 0.849837,0.525228 1.676302,0.393194 2.144003,-0.34252 0.557894,-0.877592 0.765169,-0.826188 0.776393,0.192543 0.0084,0.764367 0.802813,2.002971 1.765313,2.752454 1.625004,1.265364 1.607147,1.314697 -0.25,0.690677 -1.92153,-0.645652 -1.931339,-0.593615 -0.25,1.326287 0.9625,1.099069 1.756891,3.087873 1.765313,4.419566 C 52.02752,26.009015 52.227196,26.195829 53,25 c 0.80186,-1.240789 0.972021,-1.254396 0.984687,-0.07874 0.0084,0.781693 -0.729431,2.244193 -1.639675,3.25 C 51.354815,29.265415 51.15397,30 51.845012,30 52.480256,30 53,29.534167 53,28.964816 53,28.262966 53.644008,28.274295 55,29 c 1.1,0.588702 1.964474,1.617035 1.921053,2.285184 -0.05951,0.915638 -0.203165,0.906973 -0.583334,-0.03518 -0.894101,-2.215816 -2.160565,-1.335061 -2.875861,2 -0.911555,4.250117 -1.547322,5.22975 -2.44812,3.772228 -0.492919,-0.797559 -0.91655,-0.501878 -1.281742,0.894617 -0.300013,1.147253 -0.137445,1.833736 0.361263,1.525518 0.498707,-0.308218 1.464704,-0.215557 2.14666,0.205915 0.838566,0.518262 0.43395,0.964402 -1.25,1.378281 -1.657433,0.407362 -2.431867,1.243602 -2.31629,2.501147 0.0955,1.039047 -0.257836,2.695379 -0.785184,3.680736 -0.527347,0.985357 -0.60548,1.788047 -0.173629,1.783756 0.431851,-0.0043 1.305346,-1.129291 1.941099,-2.5 C 50.337319,45.023064 50.415719,44 49.846898,44 c -0.530713,0 -0.662584,-0.48921 -0.293047,-1.087132 0.394896,-0.638956 1.040502,-0.718515 1.566032,-0.192985 0.525531,0.525531 0.169809,2.329801 -0.862867,4.376582 -1.2753,2.527664 -2.305351,3.388338 -3.757016,3.139228 -1.660838,-0.285005 -1.745628,-0.161489 -0.5,0.728358 1.148549,0.820497 0.745034,0.948048 -1.722209,0.54439 -2.741145,-0.448469 -3.137627,-0.264507 -2.655668,1.232193 0.339919,1.055603 0.228801,1.331435 -0.277791,0.689564 C 40.852006,52.806401 39.45774,52.660618 38,53.080518 c -2.008352,0.578503 -2.109594,0.739725 -0.514809,0.819802 1.479786,0.0743 1.043484,0.604405 -1.713763,2.082201 -2.034425,1.090386 -4.344743,1.734708 -5.13404,1.431826 -0.789298,-0.302882 -1.720016,-0.08967 -2.068262,0.473805 -0.348247,0.563475 -1.367585,0.742681 -2.265196,0.398235 -1.090929,-0.418628 -1.392291,-0.238375 -0.908958,0.543674 1.111487,1.798423 -3.914586,1.453695 -5.430146,-0.372443 z m 2.477876,-0.875857 C 20.348138,56.050179 19.398947,56.218459 20.458881,57.933469 20.821415,58.520061 21.852485,59 22.750147,59 c 1.364964,0 1.31464,-0.232141 -0.307445,-1.418239 z M 33.492921,56.011454 C 33.84326,55.444594 33.441863,55.276947 32.551938,55.618443 30.819521,56.283234 30.502551,57 31.940983,57 c 0.517541,0 1.215913,-0.444846 1.551938,-0.988546 z M 43,49.5 c 0,0.445486 0.9,-0.0045 2,-1 2.128644,-1.926396 2.682607,-4.5 0.968615,-4.5 -0.567261,0 -1.27339,0.630656 -1.569175,1.401458 -0.598856,1.560595 -3.967263,2.898368 -6.64944,2.640847 -0.9625,-0.09241 -1.75,0.148156 -1.75,0.534594 0,0.386439 0.7875,1.280376 1.75,1.986527 1.449571,1.063496 2.050429,1.012896 3.5,-0.294745 C 42.2125,49.40042 43,49.054514 43,49.5 Z M 49.1125,24.7125 C 48.295833,23.895833 48,24.00774 48,25.133333 48,27.12119 49.344703,28.465892 49.841667,26.975 50.0525,26.3425 49.724375,25.324375 49.1125,24.7125 Z m 1.570614,-2.9 c -0.319226,-0.797733 -0.556183,-0.560776 -0.604167,0.604167 -0.04342,1.054166 0.192928,1.644791 0.52522,1.3125 0.332291,-0.332292 0.367818,-1.194792 0.07895,-1.916667 z M 24,45 c 0,-0.55 1.035,-1 2.3,-1 1.265,0 2.84,-0.54 3.5,-1.2 0.933333,-0.933333 1.2,-0.927833 1.2,0.02475 0,0.673613 -1.154295,1.663613 -2.5651,2.2 C 25.174963,46.264177 24,46.25762 24,45 Z m 30,-9.333333 c 0,-0.926469 0.777208,-1.659866 1.75,-1.651354 0.998683,0.0087 1.320676,0.335726 0.75,0.761633 -0.55,0.410477 -1.3375,1.153586 -1.75,1.651354 C 54.3375,36.926068 54,36.583333 54,35.666667 Z M 32,29.45034 c 0,-1.239857 3.185239,-6.598434 3.647473,-6.136201 C 36.184073,23.85074 33.265594,30 32.47432,30 32.213444,30 32,29.752653 32,29.45034 Z M 43.5,10 C 43.160081,9.45 43.358524,9 43.940983,9 44.523442,9 45,9.45 45,10 45,10.55 44.801558,11 44.559017,11 44.316476,11 43.839919,10.55 43.5,10 Z" />
</svg>