<svg xmlns="http://www.w3.org/2000/svg" width="57" height="57" viewBox="0 0 57 57">
   <path style="fill:#65924d" d="M 22,55 C 20.9,53.9 19.565515,53 19.034478,53 17.78846,53 12,47.355682 12,46.140692 12,45.630999 11.381319,44.976568 10.625154,44.6864 9.2005452,44.139726 8.0260422,40.053059 7.5538965,34 5.7210687,10.502561 5.7120791,11.213089 7.8807292,8.1675003 10.316421,4.7468871 14.776595,3.7130288 21.033185,5.1187911 c 3.745593,0.841579 4.534687,0.6963486 6.561343,-1.2075958 1.419287,-1.3333503 2.947773,-1.9170725 3.981339,-1.520456 0.922696,0.3540718 2.266828,0.1547757 2.986959,-0.4428802 0.933191,-0.7744797 1.883358,-0.7794361 3.30751,-0.017253 C 38.969336,2.5187727 41.270405,3 42.983824,3 c 3.587455,0 9.318069,4.9367952 10.447168,9 0.38209,1.375 1.190889,3.509551 1.797331,4.743446 0.904894,1.841141 0.609136,3.251275 -1.649283,7.863568 -1.980556,4.044824 -2.447382,5.924644 -1.665472,6.706554 1.639547,1.639547 1.322196,3.550024 -1.163568,7.004762 -1.2375,1.719889 -2.712643,4.714356 -3.278094,6.654371 -0.766508,2.629816 -1.657045,3.615387 -3.5,3.873504 -1.359549,0.190413 -2.831767,0.977913 -3.271596,1.75 C 40.26048,51.368292 39.016874,52 37.936741,52 36.856608,52 35.191468,52.41217 34.236431,52.915933 31.523868,54.346755 25.262755,57 24.598871,57 24.269492,57 23.1,56.1 22,55 Z" />
   
   <path style="fill:#597747" d="M 21.767927,54 C 21.080966,52.9 19.967668,52 19.293931,52 17.794459,52 12,46.465821 12,45.033704 12,44.465167 11.55,44 11,44 c -0.55,0 -1,-1.000128 -1,-2.222506 0,-2.199157 0.01796,-2.19653 1.709076,0.25 2.919733,4.223954 4.05624,5.13203 4.647746,3.713577 0.366483,-0.878841 0.96321,-0.688827 2.044505,0.651029 1.211286,1.500929 2.779094,1.874346 7.58352,1.806224 5.363746,-0.07605 6.40615,-0.435474 9.112775,-3.1421 C 36.778545,43.375301 38.746086,42 39.469934,42 c 2.332367,0 3.564956,-6.242369 1.486261,-7.527073 -0.574093,-0.354809 -1.693249,-0.106116 -2.487014,0.55265 C 36.879389,36.344987 32,35.557074 32,33.980948 32,33.441427 31.365002,33 30.588894,33 28.793998,33 24,27.360439 24,25.248961 c 0,-1.353147 0.344265,-1.296186 2.25,0.372279 5.565804,4.872844 12.805371,5.554272 17.013051,1.601362 C 44.564269,26.000171 46.109915,25 46.69782,25 48.187485,25 49.161458,20.71782 47.855388,19.910625 47.248599,19.535608 47.08784,18.298602 47.483773,17.051127 48.280725,14.540153 46.3157,8.9236495 44.188746,7.6331671 42.985402,6.9030645 42.976139,6.6133445 44.130023,5.7964205 45.12426,5.0925223 44.858008,4.9682642 43.159249,5.3433657 41.752952,5.6538887 39.557289,5.0504299 37.659249,3.831739 34.840161,2.0216635 34.769179,1.8691397 37,2.4151734 38.375,2.7517295 41.346244,3.2980819 43.602764,3.6292898 46.721216,4.0870106 48.114286,4.9234601 49.4093,7.115743 50.346375,8.7020843 51.501876,10 51.977081,10 c 0.475205,0 1.176726,1.4625 1.558936,3.25 0.382211,1.7875 1.118801,3.777238 1.636867,4.421639 C 56.003285,18.704542 54.804717,22.195283 53,24 c -0.946163,0.946163 -1.391275,3.50741 -1.216509,7 0.218709,4.370782 -1.562937,9 -3.463828,9 -0.790733,0 -1.145601,0.472622 -0.788594,1.050271 C 48.566566,42.72574 45.111275,49 43.153083,49 42.188887,49 40.963626,49.436374 40.430279,49.969721 39.316771,51.083229 26.134667,56 24.262806,56 23.577584,56 22.454888,55.1 21.767927,54 Z M 40,47 c 0,-0.55 0.675,-1 1.5,-1 0.825,0 1.5,-0.426591 1.5,-0.94798 0,-1.111079 -5.710182,0.670027 -6.560855,2.046446 C 36.132696,47.59431 36.808524,48 37.940983,48 39.073442,48 40,47.55 40,47 Z m 9,-19.63963 c 0,-1.146878 -0.461433,-1.104133 -2.5,0.231587 -1.375,0.900935 -2.5,1.748906 -2.5,1.884381 0,0.135475 1.125,0.03126 2.5,-0.231587 C 47.875,28.981903 49,28.133932 49,27.36037 Z M 25.244995,43.75 c 0.226413,-0.6875 1.388913,-1.393798 2.583333,-1.569551 C 29.022748,42.004696 30,41.490341 30,41.037438 c 0,-0.452903 0.685413,-1.086478 1.523139,-1.407944 1.25207,-0.480464 1.330233,-0.224034 0.439198,1.440879 -0.596167,1.113949 -2.210875,2.453822 -3.588238,2.977495 C 25.118537,45.28563 24.750796,45.250624 25.244995,43.75 Z M 34,27.091593 c 0,-0.396643 1.686103,-1.525215 3.746896,-2.507939 3.736086,-1.781615 3.74167,-1.780994 1.935235,0.215093 C 37.829903,26.845436 34,28.390873 34,27.091593 Z m 7.045837,-12.177239 c 0.613912,-1.147106 1.360337,-1.841513 1.658722,-1.543128 C 43.52882,14.195487 42.208509,17 40.996201,17 40.256642,17 40.27186,16.360542 41.045837,14.914354 Z M 22.63617,8.4942564 C 22.3208,7.6724154 21.175204,7 20.090402,7 19.005599,7 17.835382,6.5426596 17.489919,5.9836881 17.144455,5.4247166 16.373369,5.2692454 15.776393,5.6381966 15.17916,6.0073073 14.974826,5.8497489 15.322079,5.287882 16.207999,3.8544341 25,5.9634944 25,7.6094602 25,9.545431 23.285767,10.187079 22.63617,8.4942564 Z" />
   
   <path style="fill:#4d7635" d="M 22.680985,54.557489 C 20.94134,53.238751 20.952882,53.14973 22.945506,52.517296 24.09145,52.153587 24.741257,51.390362 24.389521,50.821241 24.037784,50.252119 23.46875,50.172018 23.125,50.643237 22.152715,51.976065 19.165003,52.195842 17.242584,51.075948 16.270881,50.509889 16.052973,50.047365 16.75,50.030409 17.4375,50.013684 18,49.523442 18,48.940983 18,48.358524 17.657537,48.09362 17.238972,48.352307 16.820406,48.610995 15.702765,48.255825 14.755325,47.563039 13.224861,46.443937 13.365527,46.293967 16.016353,46.218598 17.771316,46.168701 19,46.645041 19,47.375309 c 0,0.871016 1.865253,1.200348 6.25,1.103508 C 31.019585,48.351393 36,46.616765 36,44.734702 36,44.30339 37.125,43.522774 38.5,43 39.875,42.477226 41,41.561806 41,40.965734 c 0,-0.596072 0.359984,-0.861286 0.799964,-0.589363 0.439981,0.271923 0.900561,-0.999314 1.023513,-2.824971 0.264913,-3.933591 -1.82579,-5.219368 -5.125873,-3.1524 -1.905761,1.193651 -2.562558,1.147638 -4.945738,-0.346478 C 31.240392,33.104916 30.302892,32.030441 30.668533,31.664801 31.034173,31.29916 30.661775,31 29.840981,31 c -1.876919,0 -5.85206,-4.150869 -5.807712,-6.064451 0.02254,-0.97247 0.63876,-0.709744 1.910293,0.814451 1.032363,1.2375 2.544247,2.25 3.359742,2.25 0.815495,0 1.702526,0.572809 1.971179,1.272909 0.290635,0.757381 1.852715,1.172741 3.856989,1.02558 8.269949,-0.607208 12.493955,-1.147045 14.118528,-1.804381 2.030435,-0.821555 2.317126,0.534572 0.5,2.365138 -1.001309,1.008715 -0.951571,1.145953 0.25,0.689803 1.074274,-0.407824 1.542077,0.161421 1.648255,2.005677 0.08154,1.416315 -0.09896,2.327897 -0.401123,2.025739 -0.302158,-0.302158 -1.118014,0.228277 -1.813012,1.178745 -0.95131,1.300994 -0.975749,1.911275 -0.09888,2.469143 0.776978,0.494316 0.617755,0.746119 -0.478254,0.756334 -0.903656,0.0084 -1.911002,0.713685 -2.238546,1.567251 -0.341496,0.889925 -0.173849,1.291322 0.393011,0.940983 C 47.555154,42.156896 48,42.331966 48,42.881966 c 0,1.821874 -2.357938,2.49769 -3.331191,0.954763 -0.835426,-1.324425 -1.436508,-1.252511 -4.803614,0.574708 -4.353584,2.362548 -5.073658,4.05273 -1.429841,3.35617 3.480003,-0.665245 4.886876,0.550063 2.420114,2.090582 -1.483923,0.926725 -1.855507,0.95089 -1.320915,0.0859 0.477669,-0.772886 0.24674,-1.022948 -0.645357,-0.698825 -0.764058,0.277603 -1.314107,0.898749 -1.222331,1.380326 0.09177,0.481576 -1.933225,0.765943 -4.5,0.631926 -3.348822,-0.174849 -4.102013,0.0015 -2.666865,0.624275 1.1,0.477368 2.407029,0.629722 2.904508,0.338565 0.49748,-0.291158 0.609532,-0.05209 0.249005,0.531251 -0.360528,0.583346 -1.50427,0.838672 -2.54165,0.567391 -1.03738,-0.271281 -2.188489,-0.004 -2.558021,0.59388 C 28.18431,54.510797 27.431966,55 26.881966,55 c -0.55,0 -0.685804,-0.508379 -0.301787,-1.129732 0.42762,-0.691903 0.159829,-0.934123 -0.690983,-0.625 C 25.125138,53.522871 24.6125,54.25625 24.75,54.875 c 0.311885,1.403481 0.173198,1.382199 -2.069015,-0.317511 z m -1.238622,-4.46423 C 21.750581,49.594551 21.102139,49.422035 20.00138,49.70989 17.666393,50.320503 17.371233,51 19.440983,51 c 0.792541,0 1.693162,-0.408034 2.00138,-0.906741 z M 36,32 c 0,-0.55 -0.45,-1 -1,-1 -0.55,0 -1,0.45 -1,1 0,0.55 0.45,1 1,1 0.55,0 1,-0.45 1,-1 z m 8,15 C 42.718103,46.171574 42.754453,46.028399 44.25,46.015313 45.2125,46.006891 46,46.45 46,47 c 0,1.21961 -0.112787,1.21961 -2,0 z M 11.02896,44.03906 c -0.809071,-0.511673 -1.2106968,-1.190657 -0.8925,-1.508853 0.318196,-0.318196 1.147764,0.107336 1.843484,0.945627 1.442593,1.738218 1.165987,1.90204 -0.950984,0.563226 z M 27.5,42.805696 c 1.65,-0.608071 3.330609,-1.600609 3.734687,-2.20564 0.517755,-0.775241 0.739209,-0.748393 0.75,0.09093 0.02008,1.561473 -1.883066,2.702795 -4.984687,2.989336 -2.227127,0.205752 -2.172553,0.110287 0.5,-0.874623 z m 17,-16.190706 c 1.1,-0.843398 2.45,-2.034454 3,-2.646792 0.55,-0.612338 2.125,-2.278699 3.5,-3.703026 2.158486,-2.235918 2.226789,-2.489094 0.5,-1.853336 -3.242829,1.193924 -3.723942,1.159884 -4.254732,-0.301032 -0.283182,-0.779414 -0.0564,-1.112111 0.516653,-0.757945 C 49.286361,18.295015 47.043437,9.8814808 45.20194,7.75 43.94183,6.2914569 43.924021,5.9833986 45.095012,5.90032 45.867756,5.845496 45.375,5.440352 44,5 41.644915,4.24577 41.690931,4.193582 44.793837,4.09968 c 2.611184,-0.079021 3.232938,0.2630101 3,1.65032 C 47.60601,6.8686353 48.04117,7.3840351 49,7.1785714 c 1.202847,-0.2577529 1.252372,-0.069556 0.25,0.95 -1.680058,1.7088592 -1.60197,3.4084266 0.09201,2.0025496 1.910964,-1.5859596 2.690178,-0.3459789 1.594147,2.536801 -1.322588,3.47867 -1.162215,4.622102 0.438545,3.126768 0.756086,-0.70629 1.134387,-1.961531 0.840671,-2.789426 -0.309506,-0.872398 -0.151717,-1.151948 0.375299,-0.664906 0.500131,0.462196 0.955202,1.587196 1.011269,2.5 0.291556,4.746688 0.459305,5.239825 1.552568,4.56415 0.72104,-0.445627 0.882825,-0.273932 0.430902,0.457295 -0.397984,0.643952 -1.091524,0.943435 -1.541201,0.665519 -1.130558,-0.698723 -3.355146,2.160554 -2.613987,3.359775 0.581386,0.940702 -0.863139,2.313437 -2.930222,2.784597 -0.55,0.125364 -2.125,0.508917 -3.5,0.85234 C 42.575208,28.129656 42.560166,28.10231 44.5,26.61499 Z M 37.083333,25.717032 C 37.3125,25.5614 38.4,24.7739 39.5,23.967032 41.350006,22.610023 41.397071,22.631245 40.127555,24.25 39.372711,25.2125 38.285211,26 37.710889,26 37.136567,26 36.854167,25.872665 37.083333,25.717032 Z M 40,16.59106 C 40,16.400666 40.675,15.684689 41.5,15 42.364593,14.282451 43,14.185262 43,14.770566 c 0,0.558501 -0.675,1.274478 -1.5,1.59106 C 40.675,16.678209 40,16.781454 40,16.59106 Z M 22.63617,7.4942564 C 22.3208,6.6724154 22.472089,6 22.972368,6 24.327922,6 25.169682,7.7770966 24.121097,8.4251581 23.619757,8.7350032 22.95154,8.3160975 22.63617,7.4942564 Z M 39.5,4 C 39.839919,3.45 40.316476,3 40.559017,3 40.801558,3 41,3.45 41,4 41,4.55 40.523442,5 39.940983,5 39.358524,5 39.160081,4.55 39.5,4 Z" />
</svg>