<svg xmlns="http://www.w3.org/2000/svg" width="57" height="57" viewBox="0 0 57 57">
   <path style="fill:#85a572" d="m 26.550684,55.328763 c -1.574877,-0.896351 -4.35571,-1.725022 -6.179629,-1.841491 -1.82392,-0.116468 -3.838066,-0.96238 -4.47588,-1.879804 -0.713012,-1.025587 -2.528902,-1.668043 -4.714687,-1.668043 -2.9242137,0 -3.8445691,-0.530623 -5.1867964,-2.990403 C 5.0962169,45.3043 3.3804875,43.488298 2.1809597,42.913459 0.51465534,42.114932 0,41.022169 0,38.282645 0,36.310535 0.50167958,33.852083 1.1148436,32.819418 1.9256108,31.453958 1.955383,29.805221 1.2239981,26.774608 0.38373137,23.292824 0.50910804,22.060623 1.9862277,19.283417 2.958583,17.455242 4.4421019,14.45615 5.2829362,12.618766 6.1237705,10.781382 7.5480582,8.9808828 8.4480199,8.6176553 9.3479818,8.2544268 11.140085,6.6375659 12.430474,5.0246295 14.182437,2.8347407 15.383058,2.213945 17.171077,2.5734439 18.488022,2.8382279 20.929486,2.4554624 22.596551,1.7228555 24.263618,0.9902473 29.02524,0.25775528 33.177934,0.095095 c 6.814729,-0.26693176 7.718949,-0.07675718 9.280816,1.9519303 0.951756,1.2362214 2.123523,2.2476761 2.603928,2.2476761 0.480403,0 2.255572,1.7116771 3.944819,3.8037269 1.689246,2.0920497 4.147756,4.9448447 5.463355,6.3395447 2.055899,2.179512 2.409568,3.533474 2.517046,9.636108 0.09949,5.648877 -0.389624,8.318324 -2.392717,13.058885 -1.384772,3.277227 -2.517766,6.510076 -2.517766,7.18411 0,1.3692 -5.931939,6.519643 -9.643966,8.373432 -2.780418,1.388544 -11.308705,4.368727 -12.329759,4.308595 -0.379277,-0.02233 -1.97813,-0.773989 -3.553006,-1.67034 z" />
   
   <path style="fill:#65924c" d="m 26.464132,54.536156 c -1.029611,-0.819078 -3.185886,-1.503749 -4.791724,-1.521491 -1.605837,-0.01774 -3.988268,-0.81946 -5.29429,-1.781595 -1.306022,-0.962135 -3.390432,-1.609323 -4.632022,-1.438197 -2.3576886,0.324957 -5.9597165,-2.343037 -5.9597165,-4.414315 0,-0.660806 -1.029188,-1.694675 -2.2870845,-2.297484 C 0.48439702,41.638273 -0.54132329,37.266024 1.4025908,34.145634 3.1006874,31.419833 3.353486,28.043159 1.9287932,27.117063 0.15892002,25.966589 0.93312062,22.433875 4.3728891,15.964538 7.4589966,10.160349 11.871175,5.5141397 13.742651,6.0977856 14.140465,6.221849 14.357454,5.7527967 14.224849,5.0554468 14.076188,4.2736531 15.109935,3.7623429 16.921117,3.7218236 18.536669,3.6856836 20.272583,3.3970228 20.778703,3.08036 23.760464,1.2147749 40.947716,-0.32289149 39.956102,1.3646448 c -0.283811,0.4829912 0.157488,0.6063354 0.980664,0.2740986 0.823176,-0.3322368 1.496683,-0.088999 1.496683,0.5405279 0,0.6295269 1.084946,1.6645231 2.410992,2.2999909 1.326045,0.6354679 2.410991,1.6570029 2.410991,2.2700785 0,0.6130756 0.867957,1.6847954 1.928793,2.3815987 1.060837,0.696803 1.928794,1.7489636 1.928794,2.3381326 0,0.589169 1.277156,2.201512 2.838125,3.582985 2.583584,2.286495 2.836994,3.076623 2.825515,8.809878 -0.0094,4.659763 -0.790082,8.334754 -3.001354,14.127348 -3.365917,8.817273 -6.51142,12.111868 -15.086948,15.802045 -6.053754,2.60502 -9.613266,2.821903 -12.224225,0.744828 z M 6.2685777,36.819854 c 0,-4.465968 -0.1261398,-4.766359 -1.1713219,-2.7894 -1.5150231,2.865664 -1.5239069,4.497441 -0.034173,6.277091 0.6630227,0.792054 1.2054957,1.457459 1.2054957,1.47868 0,0.02122 0,-2.213646 -8e-7,-4.966371 z M 13.42092,17.696112 c 2.241889,-5.982195 1.519206,-6.817296 -1.80597,-2.0869 -2.0582457,2.928063 -2.4668471,4.709231 -2.0581908,8.972033 0.1275608,1.330617 0.2548148,1.325795 1.0143698,-0.03842 0.477681,-0.857953 1.760086,-3.938972 2.849791,-6.846708 z" />
   
   <path style="fill:#507538" d="M 26.494391,54.655839 C 25.448138,53.902588 22.857622,53.000115 20.73769,52.650346 18.617758,52.300575 16.385509,51.298431 15.777137,50.423358 15.057996,49.388954 13.875984,49.041806 12.398586,49.431102 11.141742,49.76228 9.3476694,49.430465 8.3842302,48.68864 6.8661994,47.519794 7.3258418,47.358435 11.960182,47.433291 c 3.631029,0.05865 5.912195,0.651585 7.191472,1.869255 1.222977,1.164081 2.094041,1.408185 2.508442,0.702955 0.717798,-1.221553 4.378246,-1.48874 4.379292,-0.319658 0.0011,1.197627 4.990317,1.271243 8.43779,0.124497 1.723858,-0.573413 3.134288,-1.410382 3.134288,-1.859931 0,-0.449549 0.857504,-1.053213 1.905564,-1.341477 1.04806,-0.288264 2.449352,-1.824953 3.113983,-3.414865 0.66463,-1.589914 1.765065,-3.258731 2.44541,-3.708485 0.680347,-0.449754 1.174089,-2.047319 1.097206,-3.550145 -0.07688,-1.502826 0.164656,-3.485024 0.536754,-4.404883 0.372098,-0.919861 0.211804,-1.974568 -0.356209,-2.343795 -0.638715,-0.415186 -0.713763,-1.325096 -0.196697,-2.384835 1.615616,-3.311248 1.928417,-10.374932 0.580447,-13.107667 C 46.016009,12.230721 45.605319,10.727013 45.825279,10.352683 46.04524,9.9783537 45.155072,9.0697136 43.84713,8.3334824 42.539188,7.5972523 41.469053,6.1917204 41.469053,5.2100799 c 0,-0.9816415 -0.681967,-2.5020764 -1.515481,-3.3787441 -0.833513,-0.87666897 -1.060507,-1.59394324 -0.504431,-1.59394324 0.556078,0 1.719494,1.13719874 2.585367,2.52710904 0.865875,1.3899102 1.896938,2.3173947 2.291251,2.0610783 0.394315,-0.2563164 1.974264,1.1726596 3.510998,3.1755024 1.536735,2.0028427 4.177486,5.1397617 5.868337,6.9709317 2.921184,3.163608 3.061383,3.675169 2.815438,10.273042 -0.171777,4.608217 -0.962506,8.457648 -2.350975,11.445053 -1.150679,2.475777 -2.092142,5.127286 -2.092142,5.892244 0,0.764959 -0.38498,1.140584 -0.855511,0.834724 -0.470532,-0.305861 -0.796016,0.174592 -0.723298,1.067673 0.07272,0.893081 -0.725745,2.143398 -1.774361,2.778484 -1.048617,0.635084 -2.350552,1.727112 -2.89319,2.426728 -1.101091,1.419621 -13.408594,6.335426 -15.86175,6.335426 -0.86495,0 -2.428661,-0.616297 -3.474914,-1.369549 z m 16.975785,-4.995354 c -0.119289,-1.212834 -1.442051,-0.977949 -1.856464,0.329656 -0.212167,0.669456 0.135016,1.034614 0.771517,0.811462 0.636502,-0.223152 1.124728,-0.736655 1.084947,-1.141118 z m 2.892183,-3.224844 c 0.479038,0.311392 0.613488,-0.13959 0.298774,-1.002181 -0.715061,-1.959898 -2.325278,-1.040412 -2.222754,1.269264 0.04733,1.066213 0.260948,1.23307 0.564568,0.440981 0.268637,-0.700825 0.880372,-1.019454 1.359412,-0.708064 z m 4.75066,-12.785314 c 0,-1.148684 -0.415026,-1.818737 -0.922278,-1.489007 -0.507252,0.32973 -0.677811,1.269563 -0.379018,2.088517 0.764984,2.096729 1.301296,1.849649 1.301296,-0.59951 z m 1.669486,-12.198638 c -0.202888,-5.351206 -1.393277,-5.046065 -1.813477,0.464861 -0.238901,3.13319 -2.1e-4,4.299102 0.812909,3.970735 0.659624,-0.266379 1.086836,-2.160245 1.000568,-4.435596 z M 26.614024,47.054912 c -0.333728,-0.567941 -0.136848,-1.33809 0.437511,-1.711441 1.482745,-0.963832 2.43941,0.356383 1.201621,1.658258 -0.69261,0.72847 -1.232042,0.745972 -1.639132,0.05318 z m 9.791947,-4.887547 c 0.663022,-0.281387 1.219298,-1.272358 1.236166,-2.202157 0.03222,-1.775671 2.154549,-5.240691 3.209936,-5.240691 1.216155,0 0.589024,3.117933 -0.734582,3.652146 -0.743358,0.300021 -1.570686,1.426814 -1.838507,2.503983 -0.26782,1.077169 -1.070047,1.922453 -1.782726,1.87841 -0.974492,-0.06022 -0.996879,-0.206934 -0.09029,-0.591691 z M 34.718277,30.694491 c 0,-0.608722 0.664569,-2.779654 1.47682,-4.824293 0.812251,-2.044638 1.236389,-4.376517 0.942529,-5.181953 -0.724357,-1.985374 0.391674,-5.409081 1.523401,-4.673421 0.500882,0.325589 0.679548,0.985347 0.397034,1.46613 -0.282513,0.480783 -0.0726,1.160852 0.466467,1.511266 1.727281,1.122787 1.095439,6.039624 -0.948665,7.382281 -1.060836,0.696803 -1.928793,1.920781 -1.928793,2.719949 0,0.799168 -0.433979,1.735132 -0.964397,2.079922 -0.530418,0.344789 -0.964396,0.128842 -0.964396,-0.479881 z M 34.959376,7.1609009 c 0.135693,-0.6703698 -1.619089,-1.5975744 -4.01379,-2.1208364 -5.084884,-1.111089 -3.632747,-2.7297756 1.644267,-1.8328527 2.747426,0.4669749 3.646359,1.1327996 3.883192,2.876219 0.169496,1.2477189 -0.155988,2.2685793 -0.723297,2.2685793 -0.567309,0 -0.922977,-0.5359989 -0.790372,-1.1911092 z" />
</svg>