<svg xmlns="http://www.w3.org/2000/svg" width="103" height="47" viewBox="0 0 103 47">
   <path style="fill:#2db886;" d="M 45.729889,45.547164 C 43.497481,44.828682 38.574203,43.932972 34.789271,43.556698 25.185175,42.601918 16.038151,40.249469 8.8698533,36.890694 3.666942,34.45282 2.5199614,33.426423 1.1287385,29.96342 -0.40311308,26.150365 -0.39440628,25.673854 1.269032,22.285397 3.6021328,17.532826 7.7338919,16.205303 22.437269,15.4841 c 11.242614,-0.551452 11.501654,-0.61782 15.17054,-3.886828 2.052942,-1.8291877 4.573352,-3.3257967 5.600911,-3.3257967 1.02756,0 3.101519,-1.610334 4.608799,-3.578521 2.646588,-3.455881 2.921259,-3.563594 8.014569,-3.142918 6.270876,0.517936 7.667638,1.534653 11.570488,8.422271 l 2.965458,5.2333397 8.60782,0.01176 C 94.904181,15.239159 103,18.970283 103,26.289423 103,34.597177 92.259347,40.64766 73.391271,42.968778 68.615383,43.556299 62.69377,44.525693 60.232131,45.122984 53.102028,46.853033 50.06352,46.941907 45.729889,45.547164 Z M 31.473094,26.988967 c -0.876198,-2.181622 -0.958,-2.206495 -1.015968,-0.308918 -0.03467,1.135058 0.235336,2.360921 0.600024,2.724139 1.187928,1.183145 1.38997,0.01 0.415944,-2.415221 z m 41.618952,0.35148 c -0.06194,-2.413928 -0.167245,-2.498531 -0.924696,-0.742947 -1.167377,2.705693 -1.167377,3.467085 0,3.467085 0.547031,0 0.963145,-1.225862 0.924696,-2.724138 z" />
   
   <path style="fill:#2b2f2f;" d="M 43.194051,45.602094 C 35.501834,42.10831 31.299179,34.22648 31.885528,24.393621 32.394234,15.862758 36.508383,9.4429393 42.36214,8.0456533 c 2.680786,-0.6399 4.36384,-1.838517 5.387736,-3.836972 C 49.478128,0.83545632 51.18125,3.1533033e-7 56.329495,3.1533033e-7 c 3.049952,0 4.524331,0.83872200466967 8.10521,4.61077198466967 5.873974,6.1875637 8.197286,13.3049577 7.415489,22.7171347 -0.669582,8.061221 -3.21136,12.884783 -8.841461,16.778551 -4.502328,3.113803 -14.577614,3.874297 -19.814682,1.495636 z" />
</svg>