<svg xmlns="http://www.w3.org/2000/svg" width="397" height="52" viewBox="0 0 397 52">
   <path style="fill:#d5d5d5" d="m 95.084607,42.697878 v -9 h -11.5 c -9.555556,0 -11.5,0.253623 -11.5,1.5 0,0.833333 -0.888889,1.5 -2,1.5 -1.111111,0 -2,-0.666667 -2,-1.5 0,-0.825 -0.675,-1.5 -1.5,-1.5 -0.825,0 -1.5,0.675 -1.5,1.5 0,0.833333 -0.888889,1.5 -2,1.5 -1.111111,0 -2,-0.666667 -2,-1.5 0,-1.268335 -2.37611,-1.5 -15.38499,-1.5 -15.046268,0 -15.418898,0.05175 -16.925111,2.350521 -3.43426,5.241344 -13.537074,7.239427 -20.3228744,4.019354 -2.04027,-0.968172 -4.470413,-3.396525 -5.984463,-5.980055 C -3.5772332,23.773706 2.0627006,10.4494 13.099425,8.969065 19.636408,8.092271 23.824739,9.447369 27.87171,13.748507 l 3.712897,3.946083 14.75,0.0016 c 12.445175,0.0014 14.75,-0.232701 14.75,-1.498312 0,-0.833333 0.888889,-1.5 2,-1.5 1.111111,0 2,0.666667 2,1.5 0,0.825 0.675,1.5 1.5,1.5 0.825,0 1.5,-0.675 1.5,-1.5 0,-0.833333 0.888889,-1.5 2,-1.5 1.111111,0 2,0.666667 2,1.5 0,1.246377 1.944444,1.5 11.5,1.5 h 11.5 V 8.548066 -0.601745 l 10.750003,0.613184 c 5.9125,0.337252 19.3,2.04713 29.75,3.799729 23.2972,3.90724 30.21759,3.959099 71.5,0.535794 16.775,-1.391051 37.925,-3.064561 47,-3.718911 l 16.5,-1.189727 24,4.685306 c 13.2,2.576919 29.4,5.766166 36,7.087216 10.10413,2.022435 30.04877,5.834672 55.5,10.608326 3.025,0.567372 7.3,1.511374 9.5,2.097782 4.58878,1.223136 6.45479,0.769961 -54.5,13.235733 -17.325,3.54311 -40.5,8.291163 -51.5,10.55123 -18.88236,3.87958 -20.6147,4.070772 -31,3.421351 -6.05,-0.378323 -12.125,-0.827324 -13.5,-0.997781 -1.375,-0.170456 -20.22817,-1.716505 -41.89594,-3.435663 -43.79205,-3.474536 -39.81041,-3.583419 -76.42364,2.089906 -10.35077,1.603881 -21.71327,2.916148 -25.25,2.916148 h -6.430423 z" />
   
   <path style="fill:#c1bdc8" d="m 95.084607,42.848939 v -9.151061 h -11.5 c -9.555556,0 -11.5,0.253623 -11.5,1.5 0,0.833333 -0.888889,1.5 -2,1.5 -1.111111,0 -2,-0.666667 -2,-1.5 0,-0.825 -0.675,-1.5 -1.5,-1.5 -0.825,0 -1.5,0.675 -1.5,1.5 0,0.833333 -0.888889,1.5 -2,1.5 -1.111111,0 -2,-0.666667 -2,-1.5 0,-1.268335 -2.37611,-1.5 -15.38499,-1.5 -15.046268,0 -15.418898,0.05175 -16.925111,2.350521 -3.43426,5.241344 -13.537074,7.239427 -20.3228744,4.019354 -7.59939241,-3.606148 -10.8244323,-15.27077 -6.382676,-23.085449 3.033362,-5.336795 6.517795,-7.578595 12.5579714,-8.079493 6.299046,-0.522366 11.72026,1.738131 14.188253,5.91611 l 1.700642,2.878957 h 15.284393 c 12.91946,0 15.284392,-0.232093 15.284392,-1.5 0,-0.833333 0.888889,-1.5 2,-1.5 1.111111,0 2,0.666667 2,1.5 0,0.825 0.675,1.5 1.5,1.5 0.825,0 1.5,-0.675 1.5,-1.5 0,-0.833333 0.888889,-1.5 2,-1.5 1.111111,0 2,0.666667 2,1.5 0,1.246377 1.944444,1.5 11.5,1.5 h 11.5 v -9 -9 h 4.5 4.500003 v 13 13 h 3.5 c 3.20294,0 3.5,-0.248464 3.5,-2.92742 0,-3.867202 4.03919,-7.07258 8.91235,-7.07258 4.66762,0 7.83454,2.243891 8.88422,6.29481 l 0.83052,3.20519 131.93646,0.349894 c 129.04174,0.342217 131.73899,0.388389 122.93645,2.104441 -13.16153,2.565837 -56.72815,11.514063 -73.5,15.096299 -7.975,1.70335 -17.2,3.512495 -20.5,4.020324 -3.3,0.507828 -9.31192,1.792451 -13.35982,2.854716 -6.99174,1.8348 -8.19203,1.86017 -24,0.507269 -9.1521,-0.783268 -22.94018,-1.884195 -30.64018,-2.446504 -7.7,-0.562309 -18.95,-1.447571 -25,-1.967248 -28.31447,-2.432131 -37.96165,-2.365796 -57.55933,0.395787 -10.20763,1.438395 -20.10763,3.072193 -22,3.630661 -1.89237,0.558468 -7.82817,1.294641 -13.19067,1.63594 L 95.084607,52 Z" />
   
   <path style="fill:#fce15c" d="m 95.084607,42.697878 v -9 h -11.5 c -9.555556,0 -11.5,0.253623 -11.5,1.5 0,0.833333 -0.888889,1.5 -2,1.5 -1.111111,0 -2,-0.666667 -2,-1.5 0,-0.825 -0.675,-1.5 -1.5,-1.5 -0.825,0 -1.5,0.675 -1.5,1.5 0,0.833333 -0.888889,1.5 -2,1.5 -1.111111,0 -2,-0.666667 -2,-1.5 0,-1.268335 -2.37611,-1.5 -15.38499,-1.5 -15.046268,0 -15.418898,0.05175 -16.925111,2.350521 -3.43426,5.241344 -13.537074,7.239427 -20.3228744,4.019354 -7.59939241,-3.606148 -10.8244323,-15.27077 -6.382676,-23.085449 3.033362,-5.336795 6.517795,-7.578595 12.5579714,-8.079493 6.299046,-0.522366 11.72026,1.738131 14.188253,5.91611 l 1.700642,2.878957 h 15.284393 c 12.91946,0 15.284392,-0.232093 15.284392,-1.5 0,-0.833333 0.888889,-1.5 2,-1.5 1.111111,0 2,0.666667 2,1.5 0,0.825 0.675,1.5 1.5,1.5 0.825,0 1.5,-0.675 1.5,-1.5 0,-0.833333 0.888889,-1.5 2,-1.5 1.111111,0 2,0.666667 2,1.5 0,1.246377 1.944444,1.5 11.5,1.5 h 11.5 v -9 -9 h 4.5 4.500003 v 26 26 h -4.500003 -4.5 z M 113.53916,31.243333 c -1.80607,-1.806061 -2.45455,-3.535354 -2.45455,-6.545455 0,-5.629142 3.37086,-9 9,-9 5.62914,0 9,3.370858 9,9 0,5.629142 -3.37086,9 -9,9 -3.0101,0 -4.73939,-0.648485 -6.54545,-2.454545 z" />
   
   <path style="fill:#909090" d="m 95.084607,42.697878 v -9 h -11.5 c -9.555556,0 -11.5,0.253623 -11.5,1.5 0,0.833333 -0.888889,1.5 -2,1.5 -1.111111,0 -2,-0.666667 -2,-1.5 0,-0.825 -0.675,-1.5 -1.5,-1.5 -0.825,0 -1.5,0.675 -1.5,1.5 0,0.833333 -0.888889,1.5 -2,1.5 -1.111111,0 -2,-0.666667 -2,-1.5 0,-1.268335 -2.37611,-1.5 -15.38499,-1.5 -15.046268,0 -15.418898,0.05175 -16.925111,2.350521 -3.43426,5.241344 -13.537074,7.239427 -20.3228744,4.019354 -7.59939241,-3.606148 -10.8244323,-15.27077 -6.382676,-23.085449 3.033362,-5.336795 6.517795,-7.578595 12.5579714,-8.079493 6.299046,-0.522366 11.72026,1.738131 14.188253,5.91611 l 1.700642,2.878957 h 15.284393 c 12.91946,0 15.284392,-0.232093 15.284392,-1.5 0,-0.833333 0.888889,-1.5 2,-1.5 1.111111,0 2,0.666667 2,1.5 0,0.825 0.675,1.5 1.5,1.5 0.825,0 1.5,-0.675 1.5,-1.5 0,-0.833333 0.888889,-1.5 2,-1.5 1.111111,0 2,0.666667 2,1.5 0,1.246377 1.944444,1.5 11.5,1.5 h 11.5 v -9 -9 h 4.5 4.500003 v 26 26 h -4.500003 -4.5 z m -67,-20.1 c 0,-1.155 -1.53,-3.63 -3.4,-5.5 -2.994872,-2.994872 -4.019608,-3.4 -8.6,-3.4 -4.580392,0 -5.605128,0.405128 -8.6000004,3.4 -1.87,1.87 -3.4,4.345 -3.4,5.5 0,2.016667 0.47619,2.1 12.0000004,2.1 11.52381,0 12,-0.08333 12,-2.1 z m 85.454553,8.645455 c -1.80607,-1.806061 -2.45455,-3.535354 -2.45455,-6.545455 0,-5.629142 3.37086,-9 9,-9 5.62914,0 9,3.370858 9,9 0,5.629142 -3.37086,9 -9,9 -3.0101,0 -4.73939,-0.648485 -6.54545,-2.454545 z" />
   
   <path style="fill:#c69d09" d="m 95.084607,42.197878 v -9.5 h -11.5 -11.5 v -7 -7 h 11.5 11.5 v -9.5 -9.5 h 4.5 4.500003 v 26 26 h -4.500003 -4.5 z M 8.2912596,40.029211 C 0.82740139,36.350647 -2.3179573,24.700494 2.0689556,16.982304 5.1023176,11.645509 8.5867506,9.403709 14.626927,8.902811 21.12961,8.363558 26.257722,10.623881 29.150404,15.30434 l 2.097322,3.393538 h 14.91844 14.918441 v 7 7 l -15.25,0.0063 -15.25,0.0063 -1.596214,2.80676 c -3.21375,5.651014 -13.733022,7.944191 -20.6971334,4.511928 z M 28.084607,22.597878 c 0,-1.155 -1.53,-3.63 -3.4,-5.5 -2.994872,-2.994872 -4.019608,-3.4 -8.6,-3.4 -4.580392,0 -5.605128,0.405128 -8.6000004,3.4 -1.87,1.87 -3.4,4.345 -3.4,5.5 0,2.016667 0.47619,2.1 12.0000004,2.1 11.52381,0 12,-0.08333 12,-2.1 z m 37,3.1 c 0,-5.555556 0.309524,-7 1.5,-7 1.190476,0 1.5,1.444444 1.5,7 0,5.555556 -0.309524,7 -1.5,7 -1.190476,0 -1.5,-1.444444 -1.5,-7 z" />
    
   <path style="fill:#424438" d="m 31.584607,25.701092 v -6.998279 l 14.75,-0.0025 14.75,-0.0024 v 7 7 l -14.75,7.46e-4 -14.75,7.46e-4 z m 33.5,-0.0032 c 0,-5.555556 0.309524,-7 1.5,-7 1.190476,0 1.5,1.444444 1.5,7 0,5.555556 -0.309524,7 -1.5,7 -1.190476,0 -1.5,-1.444444 -1.5,-7 z m 7,0 v -7 h 11.5 11.5 v 7 7 h -11.5 -11.5 z" />
   
   <path style="fill:#2f2f2e" d="m 31.477618,31.116091 c 0.333844,-0.869984 0.606989,-2.444984 0.606989,-3.5 0,-1.802757 0.872747,-1.918213 14.5,-1.918213 h 14.5 v 3.5 3.5 H 45.977618 c -13.364755,0 -15.036987,-0.182422 -14.5,-1.581787 z m 33.606989,-1.918213 c 0,-2.444444 0.452381,-3.5 1.5,-3.5 1.047619,0 1.5,1.055556 1.5,3.5 0,2.444444 -0.452381,3.5 -1.5,3.5 -1.047619,0 -1.5,-1.055556 -1.5,-3.5 z m 7,0 v -3.5 h 11.5 11.5 v 3.5 3.5 h -11.5 -11.5 z" />
</svg>