<svg xmlns="http://www.w3.org/2000/svg" width="985" height="162" viewBox="0 0 985 162">
   <path style="fill:#d3d2d3" d="m 760.58567,160.88496 c -16.59828,-3.5576 -31.38929,-11.78053 -42.37296,-23.55685 -6.69985,-7.18337 -13.80102,-17.64059 -13.37901,-19.70201 0.3024,-1.47714 6.75034,-3.66831 21.27146,-7.22856 15.2075,-3.72855 21.08924,-6.54459 27.40138,-13.119125 7.38955,-7.696746 7.15228,-8.784735 -1.91578,-8.784735 -6.32976,0 -6.99605,-0.190041 -6.99605,-1.995431 0,-1.991601 -0.66629,-1.995431 -347.15012,-1.995431 -307.035642,0 -347.498421,0.173451 -350.164232,1.501045 -5.919867,2.948138 -22.233763,5.659779 -31.959517,5.312205 C 6.7360072,91.00927 5.9411026,90.797704 3.0777622,88.057588 -1.1649128,83.997489 -1.0025593,77.394977 3.4492322,72.950845 7.6910274,68.716348 26.453047,68.566426 39.993008,72.658834 l 7.495762,2.265569 348.55297,0.302309 c 309.5843,0.268509 348.55297,0.134674 348.55297,-1.197086 0,-1.181842 1.39011,-1.499394 6.56368,-1.499394 6.35011,0 6.54065,-0.07304 5.85617,-2.24486 -0.96516,-3.062421 -4.2801,-7.019475 -8.11034,-9.681349 -5.0403,-3.502817 -13.24991,-6.468674 -29.34302,-10.600635 -11.55197,-2.966013 -14.94389,-4.20493 -14.94389,-5.458341 0,-4.526322 16.09687,-22.916158 26.48503,-30.257767 11.42587,-8.0749894 14.97265,-9.6118583 28.27145,-12.2503758 14.56383,-2.88950585 25.07523,-2.72174897 38.33434,0.6117981 13.56952,3.4115904 22.80894,8.4517787 35.25361,19.2311547 4.26885,3.697613 15.57421,17.612609 15.57421,19.169233 0,0.303578 -2.71291,0.551962 -6.02871,0.551962 -6.80798,0 -10.97699,1.441737 -15.72434,5.437821 -3.63983,3.06383 -10.57521,14.393013 -11.63503,19.006208 -0.3782,1.646231 -0.92145,3.778848 -1.20724,4.739149 -0.46041,1.547089 0.2851,1.746002 6.54379,1.746002 5.61229,0 7.0634,0.307458 7.0634,1.496573 0,1.130744 1.22153,1.496574 4.99717,1.496574 4.43181,0 4.99718,-0.24032 4.99718,-2.124121 0,-2.054474 0.28674,-2.102907 8.74506,-1.477134 4.80978,0.355844 24.67335,1.541413 44.14127,2.6346 19.46792,1.093187 41.50546,2.405801 48.97232,2.916921 7.46685,0.51112 20.30894,1.244632 28.53797,1.630028 21.09165,0.987798 22.65916,1.948939 4.52711,2.775894 -8.52018,0.388583 -30.10798,1.563592 -47.97288,2.61113 -17.8649,1.047538 -42.60092,2.386631 -54.96893,2.975761 -12.36801,0.589131 -24.51114,1.173507 -26.98475,1.298611 -3.98509,0.201558 -4.53383,-0.02824 -4.81682,-2.017391 -0.28188,-1.981357 -0.89779,-2.24486 -5.24704,-2.24486 -4.26137,0 -4.92766,0.26981 -4.92766,1.995431 0,1.807523 -0.66629,1.995431 -7.07546,1.995431 h -7.07545 l 0.70058,3.242575 c 3.7332,17.278525 15.86089,29.682025 29.022,29.682025 h 5.34905 l -1.92158,3.25125 c -8.62812,14.5984 -27.78255,29.06101 -45.98389,34.72029 -8.61502,2.67862 -30.61665,3.50148 -39.9774,1.49514 z" />
   
   <path style="fill:#b1b1b1" d="m 762.58454,160.45547 c -10.2742,-2.42434 -18.98926,-5.31332 -18.98926,-6.29478 0,-0.44853 -0.64892,-0.81551 -1.44203,-0.81551 -1.74841,0 -7.62404,-3.35826 -13.04978,-7.45871 -4.4484,-3.36183 -16.76662,-15.97505 -17.39011,-17.80657 -0.21985,-0.6458 -0.7148,-1.39867 -1.09989,-1.67304 -0.3851,-0.27437 -1.86042,-2.34849 -3.2785,-4.60916 -2.92483,-4.66268 -2.24242,-6.3657 2.55079,-6.3657 1.57839,0 3.54443,-0.67346 4.36896,-1.49657 0.82454,-0.82312 2.47895,-1.49772 3.67649,-1.49909 4.34584,-0.005 21.10552,-5.10244 26.88251,-8.17624 6.34825,-3.37776 13.77308,-10.877195 13.77308,-13.911457 0,-1.631475 -0.84288,-1.854963 -6.99604,-1.854963 -6.32976,0 -6.99605,-0.190041 -6.99605,-1.995431 0,-1.991601 -0.66629,-1.995431 -347.08845,-1.995431 H 50.417797 l -5.961971,2.102114 C 37.181895,89.169622 23.554964,91.477897 15.657893,91.483025 5.4696331,91.490009 -0.86534773,86.821699 0.43626249,80.26693 2.3384701,70.687621 13.077205,67.510059 31.657569,71.028629 c 4.331983,0.82035 10.441998,2.391752 13.57781,3.492005 5.664138,1.987359 7.972843,2.00046 352.530411,2.00046 346.16263,0 346.82892,0.0038 346.82892,1.995431 0,1.963375 0.66629,1.995431 41.47656,1.995431 40.81026,0 41.47655,-0.03206 41.47655,-1.995431 0,-1.723555 0.66629,-1.995431 4.89024,-1.995431 3.412,0 5.06312,0.449719 5.46213,1.487729 0.49036,1.275656 5.3851,1.499091 34.33758,1.567447 18.57114,0.04384 41.86112,0.260697 51.75553,0.481894 9.89441,0.221197 27.20962,0.47828 38.47825,0.571296 l 20.48842,0.16912 -12.99266,0.800197 c -7.14596,0.440108 -25.81041,1.508676 -41.47655,2.374596 -15.66615,0.865921 -35.67983,2.000692 -44.47486,2.521715 -8.79503,0.521023 -22.84959,1.246591 -31.23235,1.612371 -15.11444,0.659515 -15.24138,0.647273 -15.24138,-1.469792 0,-1.896675 -0.55751,-2.134849 -4.99718,-2.134849 -4.33088,0 -4.99717,0.266058 -4.99717,1.995431 0,1.80539 -0.66629,1.995431 -6.99605,1.995431 -8.01076,0 -7.9225,-0.147397 -5.17433,8.641124 4.56389,14.595136 14.9565,24.283476 26.04868,24.283476 2.88056,0 5.11096,0.45399 5.11096,1.04032 0,1.9054 -7.65526,11.36028 -13.69831,16.91856 -7.48576,6.88525 -9.79001,8.62575 -14.78558,11.16819 -2.19876,1.11904 -4.67236,2.57966 -5.4969,3.24585 -4.22658,3.41488 -21.13283,7.4074 -33.98079,8.02478 -5.90505,0.28376 -10.78062,-0.13106 -15.99096,-1.36051 z m -4.75927,-90.296719 c -1.77935,-3.898523 -7.02994,-9.292148 -11.71259,-12.031636 -2.41758,-1.414364 -10.15703,-4.195127 -17.19874,-6.179471 -7.04172,-1.984346 -12.9702,-3.75691 -13.17441,-3.939031 -0.84415,-0.75285 5.29241,-9.743795 10.43515,-15.28901 12.1668,-13.118979 32.52969,-22.047732 50.28201,-22.047732 15.51347,0 34.72356,6.797622 45.09452,15.957005 1.37422,1.213681 3.18008,2.721824 4.01301,3.351428 2.14155,1.618769 8.97964,9.825566 8.97964,10.776998 0,0.435879 -1.46167,1.531646 -3.24816,2.435037 -7.31413,3.698602 -15.65944,16.006337 -17.25807,25.45235 l -0.6576,3.885543 h -27.23619 -27.23619 z" />
   
   <path style="fill:#b9986b" d="m 766.08256,150.70385 c -6.97019,-1.04378 -20.90219,-6.66121 -27.54973,-11.10814 -1.41012,-0.94332 -3.94935,-2.62465 -5.64271,-3.73629 -2.62257,-1.72164 -18.15639,-19.96599 -18.24205,-21.42514 -0.0161,-0.27437 4.92693,-1.71565 10.98453,-3.20284 18.22238,-4.47377 29.02784,-10.90486 32.5794,-19.390335 l 1.40106,-3.347425 h 26.83974 26.83974 l 0.53584,3.988168 c 0.72055,5.362761 5.6718,15.698782 9.731,20.314002 1.8162,2.06498 5.36698,4.80205 7.89063,6.0824 l 4.58846,2.32791 -7.99321,7.87507 c -10.40047,10.24676 -16.89635,14.4416 -28.49381,18.40042 -8.01071,2.73448 -11.11119,3.27056 -19.97651,3.45402 -5.77174,0.11944 -11.84331,0.0152 -13.49238,-0.23182 z M 7.3939353,89.577448 C 3.3164972,87.729005 0.01560628,84.243531 0.01560628,81.786532 c 0,-1.000302 5.37667252,-1.274576 24.98587572,-1.274576 24.319586,0 24.985876,-0.05321 24.985876,-1.995431 0,-1.991603 0.66629,-1.995431 347.303682,-1.995431 h 347.30367 v 3.990862 3.990862 H 397.00654 49.418362 l -5.919814,2.077067 c -6.778973,2.378521 -20.874558,4.874216 -27.491981,4.867612 -2.473602,-0.002 -6.3492861,-0.843988 -8.6126317,-1.870049 z M 837.54217,86.498249 c 0,-1.729373 -0.66629,-1.995431 -4.99718,-1.995431 h -4.99717 v -3.990862 -3.990862 h 4.99717 c 4.33089,0 4.99718,0.266058 4.99718,1.995431 0,1.976472 0.66629,1.995431 70.12703,1.995431 38.56985,0 69.91406,0.212593 69.65377,0.472428 -0.26028,0.259836 -10.79183,0.925431 -23.40343,1.479101 -12.61161,0.55367 -43.16875,2.130993 -67.90477,3.505165 -24.73602,1.37417 -45.76163,2.504463 -46.72359,2.511761 -1.08715,0.0083 -1.74901,-0.74184 -1.74901,-1.982162 z" />
   
   <path style="fill:#888888" d="m 766.08256,150.70385 c -6.97019,-1.04378 -20.90219,-6.66121 -27.54973,-11.10814 -1.41012,-0.94332 -3.94935,-2.62465 -5.64271,-3.73629 -2.62257,-1.72164 -18.15639,-19.96599 -18.24205,-21.42514 -0.0161,-0.27437 4.92693,-1.71565 10.98453,-3.20284 18.22238,-4.47377 29.02784,-10.90486 32.5794,-19.390335 l 1.40106,-3.347425 h 26.83974 26.83974 l 0.53584,3.988168 c 0.72055,5.362761 5.6718,15.698782 9.731,20.314002 1.8162,2.06498 5.36698,4.80205 7.89063,6.0824 l 4.58846,2.32791 -7.99321,7.87507 c -10.40047,10.24676 -16.89635,14.4416 -28.49381,18.40042 -8.01071,2.73448 -11.11119,3.27056 -19.97651,3.45402 -5.77174,0.11944 -11.84331,0.0152 -13.49238,-0.23182 z M 7.3939353,89.577448 C 3.3164972,87.729005 0.01560628,84.243531 0.01560628,81.786532 c 0,-1.000302 5.37667252,-1.274576 24.98587572,-1.274576 24.319586,0 24.985876,-0.05321 24.985876,-1.995431 0,-1.991603 0.66629,-1.995431 347.303682,-1.995431 h 347.30367 v 3.489176 3.489175 L 397.04118,83.751703 49.48764,84.00396 43.533186,86.330456 C 37.035501,88.8692 23.127552,91.45461 16.006567,91.447497 13.532965,91.445497 9.6572809,90.603509 7.3939353,89.577448 Z M 837.54217,85.999391 c 0,-2.328002 -0.33314,-2.494288 -4.99718,-2.494288 h -4.99717 v -3.492005 -3.492004 h 4.99717 c 4.33089,0 4.99718,0.266058 4.99718,1.995431 0,1.976472 0.66629,1.995431 70.12703,1.995431 38.56985,0 69.91406,0.212593 69.65377,0.472428 -0.26028,0.259836 -10.79183,0.925431 -23.40343,1.479101 -12.61161,0.55367 -43.16875,2.130993 -67.90477,3.505165 -24.73602,1.37417 -45.76163,2.504463 -46.72359,2.511761 -1.20287,0.0091 -1.74901,-0.765596 -1.74901,-2.48102 z" />
    
   <path style="fill:#a26500" d="M 49.987358,80.013098 V 76.521094 H 397.29104 744.59471 v 3.492004 3.492005 H 397.29104 49.987358 Z m 777.560462,0 v -3.492004 h 4.99717 4.99718 v 3.492004 3.492005 h -4.99718 -4.99717 z" />
</svg>