<svg xmlns="http://www.w3.org/2000/svg" width="205" height="27" viewBox="0 0 205 27"> 
   <path style="fill:#a3a3a3" d="M 51,23 V 19 H 25.5 0 V 13.5 8 H 25.5 51 V 4 0 h 77.08687 77.08686 l -4.1595,7.75 C 196.01134,17.071405 190.99898,22.561665 185.16709,25.108089 181.06311,26.900045 177.40442,27 115.91709,27 H 51 Z" />
   
   <path style="fill:#6e6e6e" d="M 51,23 V 19 H 25.5 0 V 13.5 8 H 25.5 51 v 2.5 2.5 h 73 c 40.15,0 73,0.356306 73,0.791792 0,1.548254 -8.56737,9.032727 -12.71016,11.10363 C 180.14043,26.969631 179.14837,27 115.53984,27 H 51 Z" />
    
   <path style="fill:#a56b07" d="M 0,13.5 V 8 H 25.5 51 V 13.5 19 H 25.5 0 Z" />
    
   <path style="fill:#804c00" d="M 0,16 V 13 H 25.5 51 v 3 3 H 25.5 0 Z" />
</svg>