<svg xmlns="http://www.w3.org/2000/svg" width="575" height="93" viewBox="0 0 575 93">
   <path style="fill:#c3c3c3" d="M 91,72.5 V 52 H 57 c -33.333333,0 -34,0.03922 -34,2 0,1.884058 -0.666667,2 -11.5,2 H 0 V 46.5 37 h 11.5 c 10.833333,0 11.5,0.115942 11.5,2 0,1.960784 0.666667,2 34,2 H 91 V 20.5 0 h 2.55845 c 10.33744,0 29.00157,5.5847861 36.94155,11.053855 8.70218,5.994079 15.62806,16.623449 17.01952,26.120401 l 0.68485,4.674255 7.14782,0.555531 c 3.93129,0.305542 69.69781,0.849348 146.14781,1.208459 76.45,0.35911 146.2,0.77611 155,0.926665 8.8,0.150556 39.0625,0.315835 67.25,0.367286 44.84731,0.08186 51.25,0.280944 51.25,1.593548 0,1.315057 -7.18196,1.511949 -58.25,1.59691 -32.0375,0.0533 -65.675,0.216633 -74.75,0.362961 -9.075,0.146328 -78.88766,0.614006 -155.13924,1.039285 l -138.63923,0.773234 -0.62132,4.613805 c -0.71151,5.283492 -4.34424,13.60059 -8.07935,18.497566 C 136.28509,77.626077 127.26499,83.860857 119.5,87.222379 114.25755,89.491872 98.05996,93 92.82378,93 91.11805,93 91,91.673089 91,72.5 Z" />
   
   <path style="fill:#a2a2a2" d="M 91,72.148217 V 52 H 57 c -33.333333,0 -34,0.03922 -34,2 0,1.884058 -0.666667,2 -11.5,2 H 0 V 51 46 H 11.5 23 V 43.5 41 h 34 34 v 2.5 2.5 h 28.60699 c 25.8141,0 28.54704,-0.156232 27.99291,-1.600252 -0.56181,-1.464063 10.64154,-1.54441 131.64301,-0.944104 72.7414,0.360881 136.08209,0.843471 140.75709,1.072423 4.675,0.228952 41.4625,0.428799 81.75,0.444105 64.43208,0.02448 73.25,0.2084 73.25,1.527828 0,1.319571 -8.81093,1.501453 -73.25,1.512083 -40.2875,0.0066 -87.875,0.233957 -105.75,0.505135 -17.875,0.271178 -80.93634,0.770331 -140.13631,1.109229 l -107.63631,0.616178 -1.06927,5.324264 C 143.17592,75.395706 124.01962,89.688258 98.75,91.684272 L 91,92.296435 Z" />
   
   <path style="fill:#6e6e6e" d="M 91,71.801812 V 52 H 57 c -33.333333,0 -34,0.03922 -34,2 0,1.884058 -0.666667,2 -11.5,2 H 0 V 51.5 47 H 11.5 23 v -3 -3 h 34 34 v 5 5 h 28.56739 c 26.73842,0 28.5341,0.11204 28.04749,1.75 -0.28595,0.9625 -0.82713,3.1 -1.20262,4.75 -1.17457,5.161288 -7.28501,15.127981 -11.86041,19.345445 -10.8662,8.66647 -27.06067,14.481008 -39.80185,14.867026 L 91,91.603624 Z m 57,-25.303424 v -3.825863 l 63.25,0.659616 c 34.7875,0.362789 130.8625,0.960767 213.5,1.32884 113.70271,0.50644 150.25,0.953918 150.25,1.839631 0,0.886281 -39.14484,1.332266 -161.25,1.837155 -88.6875,0.36671 -184.7625,0.963688 -213.5,1.326615 L 148,50.324251 Z" />
    
   <path style="fill:#870014" d="M 23,46.5 V 41 H 57 91 V 46.5 52 H 57 23 Z" />
</svg>