<svg xmlns="http://www.w3.org/2000/svg" width="235" height="39" viewBox="0 0 235 39">
   <path style="fill:#d3d3d3" d="M 128.8075,34.75 128.5,30.5 74.5,29.999571 C 15.508967,29.45289 17.108825,29.61555 9.357327,23.376409 5.474685,20.251291 0,12.467248 0,10.07193 0,9.320436 19.281223,9 64.5,9 H 129 V 4.5 0 h 9 9 v 3 3 h 36 36 V 3.5 C 219,1.309524 219.43333,1 222.5,1 h 3.5 v 6 c 0,5.927364 0.0344,6 2.84501,6 C 232.58425,13 235,15.815603 235,20.173753 235,24.325672 232.52058,27 228.67126,27 226.07305,27 226,27.164088 226,33 v 6 h -3.5 C 219.43333,39 219,38.690476 219,36.5 V 34 h -36 -36 v 2.5 c 0,2.480291 -0.0705,2.5 -8.9425,2.5 h -8.9425 z" />
   
   <path style="fill:#c2c2c2" d="M 129,34.547957 V 30.095915 L 74.75,29.797957 C 25.300032,29.526363 20.23456,29.345705 17.5,27.756161 c -1.65,-0.959112 -3.45,-1.7609 -4,-1.781752 -0.55,-0.02085 -2.439459,-1.486124 -4.198798,-3.25616 L 6.102404,19.5 67.644245,19.765152 129.18609,20.030304 128.964,15.265152 C 128.84185,12.644318 128.79998,8.1375 128.87095,5.25 L 129,0 h 9 9 v 3 3 h 36 36 V 3.5 C 219,1.309524 219.43333,1 222.5,1 h 3.5 v 6 c 0,5.927364 0.0344,6 2.84501,6 C 232.58425,13 235,15.815603 235,20.173753 235,24.325672 232.52058,27 228.67126,27 226.07305,27 226,27.164088 226,33 v 6 h -3.5 C 219.43333,39 219,38.690476 219,36.5 V 34 h -36 -36 v 2.5 c 0,2.481481 -0.0667,2.5 -9,2.5 h -9 z" />
   
   <path style="fill:#fce15c" d="M 129,19.5 V 0 h 9 9 l -4.2e-4,3.25 -4.1e-4,3.25 L 182.99958,6.225513 219,5.951025 V 3.475513 C 219,1.313022 219.44257,1 222.5,1 h 3.5 v 6 c 0,5.927364 0.0344,6 2.84501,6 C 232.58425,13 235,15.815603 235,20.173753 235,24.325672 232.52058,27 228.67126,27 226.07305,27 226,27.164088 226,33 v 6 h -3.5 c -3.22222,0 -3.5,-0.238095 -3.5,-3 v -3 h -36 -36 v 3 3 h -9 -9 z" />
   
   <path style="fill:#c09f0c" d="M 129,19.5 V 0 h 9 9 V 3.5 7 h 36 36 V 4 c 0,-2.761905 0.27778,-3 3.5,-3 h 3.5 v 6 c 0,5.927364 0.0344,6 2.84501,6 C 232.58425,13 235,15.815603 235,20.173753 235,24.325672 232.52058,27 228.67126,27 226.07305,27 226,27.164088 226,33 v 6 h -3.5 c -3.22222,0 -3.5,-0.238095 -3.5,-3 v -3 h -36 -36 v 3 3 h -9 -9 z m 29,0 V 9 h -3 -3 V 19.5 30 h 3 3 z m 12,0 V 9 h -3 -3 V 19.5 30 h 3 3 z m 11,0 V 9 h -3 -3 V 19.5 30 h 3 3 z m 12,0 V 9 h -3 -3 V 19.5 30 h 3 3 z m 11,0 V 9 h -3 -3 V 19.5 30 h 3 3 z m 12,0 V 9 h -3 -3 V 19.5 30 h 3 3 z" />
   
   <path style="fill:#ab8300" d="M 129,19.5 V 0 h 9 9 v 9.5 c 0,9.466667 0.009,9.5 2.5,9.5 2.36364,0 2.5,0.3 2.5,5.5 0,5.444444 0.0303,5.5 3,5.5 2.9697,0 3,-0.05556 3,-5.5 0,-5.444444 0.0303,-5.5 3,-5.5 2.9697,0 3,0.05556 3,5.5 0,5.444444 0.0303,5.5 3,5.5 2.9697,0 3,-0.05556 3,-5.5 0,-5.2 0.13636,-5.5 2.5,-5.5 2.36364,0 2.5,0.3 2.5,5.5 0,5.444444 0.0303,5.5 3,5.5 2.9697,0 3,-0.05556 3,-5.5 0,-5.444444 0.0303,-5.5 3,-5.5 2.9697,0 3,0.05556 3,5.5 0,5.444444 0.0303,5.5 3,5.5 2.9697,0 3,-0.05556 3,-5.5 0,-5.2 0.13636,-5.5 2.5,-5.5 2.36364,0 2.5,0.3 2.5,5.5 0,5.444444 0.0303,5.5 3,5.5 2.9697,0 3,-0.05556 3,-5.5 0,-5.444444 0.0303,-5.5 3,-5.5 2.9697,0 3,0.05556 3,5.5 0,5.444444 0.0303,5.5 3,5.5 2.9697,0 3,-0.05556 3,-5.5 0,-4.222222 0.34848,-5.5 1.5,-5.5 1.22222,0 1.5,-1.666667 1.5,-9 V 1 h 3.5 3.5 v 19 19 h -3.5 c -3.22222,0 -3.5,-0.238095 -3.5,-3 v -3 h -36 -36 v 3 3 h -9 -9 z" />
   
   <path style="fill:#5b5b5b" d="M 129,19.5 V 0 h 9 9 V 19.5 39 h -9 -9 z M 219,20 V 1 h 3.5 3.5 v 19 19 h -3.5 -3.5 z" />
</svg>